<svg width="136" height="96" viewBox="0 0 136 96" fill="none" xmlns="http://www.w3.org/2000/svg">
<g id="Group">
<path id="Vector" d="M67.2214 95.9141C64.9007 95.4973 62.7039 94.3031 60.924 92.4669C59.8876 91.3966 59.5045 90.8672 58.7723 89.4928C57.5781 87.2397 57.1838 85.5048 57.2514 82.8461C57.2965 81.4267 57.3528 80.8859 57.6007 79.9622C58.2766 77.4049 59.4031 75.4672 61.2507 73.7211C63.47 71.6032 66.2413 70.4541 69.1027 70.4541C71.4797 70.4541 73.2822 71.1526 74.9495 72.7072C75.4903 73.2254 76.1549 73.9464 76.4253 74.3294C77.2815 75.5236 78.1376 77.4049 78.4643 78.8018L78.6108 79.4665H77.6645C76.7295 79.4665 76.7182 79.4665 76.6506 79.1623C75.9972 76.2333 74.8031 73.9351 73.3273 72.6959C71.7952 71.4229 70.9615 71.0962 69.1703 71.0962C67.8523 71.0962 66.7933 71.299 65.847 71.7496C61.7013 73.7211 59.1328 78.0583 59.1215 83.1278C59.1102 85.5837 59.4369 87.0482 60.4396 89.2224C61.093 90.6306 61.7238 91.5318 62.7941 92.5908C64.4726 94.2355 66.0272 95.0579 68.0325 95.3508C71.2432 95.824 74.544 94.3144 76.5379 91.4755C76.7971 91.0925 77.8222 89.2449 78.8023 87.3523C79.7824 85.4597 80.8414 83.4094 81.1681 82.7898C81.4948 82.1702 82.4073 80.4015 83.1959 78.8469C84.4914 76.3234 86.4178 72.6058 87.1388 71.2427L87.4091 70.7357L88.3667 70.7019L89.3355 70.6681L89.313 83.263L89.2792 95.8578H88.378H87.4767L87.4429 91.4417L87.4204 87.0144H83.5451H79.6698L79.4444 87.3861C79.3205 87.5776 78.8136 88.5465 78.3179 89.5266C77.304 91.5093 76.8421 92.1852 75.7268 93.278C74.4651 94.5172 73.0907 95.3396 71.5924 95.7564C70.8151 95.9704 68.0888 96.0718 67.2214 95.9141ZM87.4204 79.2187C87.4204 74.9603 87.3753 72.1439 87.319 72.2003C87.2176 72.3129 85.4264 75.7489 83.0269 80.4241C82.3284 81.7872 81.3596 83.6798 80.8639 84.6261L79.9739 86.3384H83.6915H87.4204V79.2187Z" fill="#FDFEFE"/>
<path id="Vector_2" d="M122.737 95.8694C121.024 95.4751 119.684 94.7879 118.354 93.6163C116.721 92.1743 115.651 90.5746 114.986 88.5806C114.513 87.1837 114.411 86.4852 114.423 84.8179C114.434 82.8803 114.727 81.6185 115.572 79.8498C116.236 78.4529 116.845 77.6418 118.05 76.5153C120.089 74.6227 122.511 73.7327 125.271 73.8679C126.803 73.9467 127.558 74.127 128.955 74.7916C132.56 76.4927 134.892 80.0751 135.14 84.3222C135.286 86.7556 134.599 89.3016 133.202 91.4082C132.673 92.2193 131.062 93.8416 130.194 94.4274C129.496 94.9118 128.414 95.4187 127.457 95.7004C126.443 96.0045 123.751 96.1059 122.737 95.8694ZM127.04 95.0695C128.381 94.6189 129.124 94.1119 130.375 92.8164C131.569 91.5885 132.436 89.8986 132.966 87.8145C133.315 86.3951 133.315 83.4435 132.954 82.0128C132.65 80.7961 131.929 79.0725 131.377 78.2501C130.183 76.4364 128.324 75.0845 126.398 74.6114C125.519 74.3973 123.784 74.4311 122.973 74.6677C119.864 75.5802 117.611 78.1375 116.653 81.7988C116.101 83.9054 116.18 86.6429 116.845 88.7045C118.005 92.3095 120.506 94.7766 123.582 95.3511C124.46 95.5201 126.082 95.3849 127.04 95.0695Z" fill="#FDFEFE"/>
<path id="Vector_3" d="M0 83.3083V70.6797H3.92039C6.82689 70.6797 7.97597 70.7248 8.39279 70.8374C11.0402 71.5359 12.9666 74.4086 12.5272 76.9771C12.3808 77.8671 11.7499 79.1626 11.119 79.8723C10.8712 80.154 10.3192 80.6271 9.90236 80.92L9.13631 81.4608L9.72212 81.5959C11.9076 82.1029 14.0368 84.1419 14.7691 86.4176C15.2647 87.9947 15.1521 90.0563 14.4874 91.5546C13.8903 92.9065 12.4033 94.4724 11.1416 95.092C9.65452 95.813 9.50807 95.8243 4.53999 95.8806L0 95.9369V83.3083ZM9.73338 94.8104C11.2542 94.1006 12.73 92.0616 13.0567 90.2366C13.3721 88.5017 13.113 86.5302 12.3808 85.0882C11.9189 84.1645 10.7247 82.914 9.91363 82.5084C8.92227 82.0128 8.34773 81.9452 5.01314 81.9452H1.91513V88.6031V95.2497L5.44123 95.2159L8.95606 95.1821L9.73338 94.8104ZM8.24634 81.0665C9.35036 80.5145 10.1502 79.3654 10.5332 77.7431C10.9951 75.7829 10.4431 73.62 9.14758 72.3132C8.14495 71.3106 8.12242 71.2993 4.82163 71.2655L1.91513 71.2317V76.3124V81.3932L4.82163 81.3594C7.58167 81.3256 7.73939 81.3143 8.24634 81.0665Z" fill="#FDFEFE"/>
<path id="Vector_4" d="M17.8777 95.8355C17.8326 95.8017 17.7988 90.1239 17.7988 83.2182V70.6797H18.7564H19.714V83.297V95.9144H18.8353C18.3508 95.9144 17.9115 95.8806 17.8777 95.8355Z" fill="#FDFEFE"/>
<path id="Vector_5" d="M21.8555 95.8352C21.8555 95.7789 22.1146 95.0016 22.43 94.1116C22.7454 93.2103 23.2411 91.7684 23.5453 90.9009C23.8382 90.0335 24.593 87.8818 25.2126 86.1131C26.1251 83.5333 29.0316 75.2306 30.3496 71.4679L30.6088 70.7357L31.5776 70.7019C32.4225 70.6794 32.5464 70.6906 32.6027 70.8709C32.6365 70.9835 32.9745 72.2115 33.3463 73.6084C33.7293 75.0053 34.1011 76.3684 34.1912 76.6501C34.27 76.9317 34.4728 77.6414 34.6305 78.2272C34.9234 79.3087 35.7571 82.3504 36.1514 83.8037C36.7597 85.9779 37.7623 89.6166 38.427 92.0275C38.6748 92.9625 38.979 94.0778 39.1029 94.5059C39.2269 94.9452 39.3508 95.4296 39.3846 95.6099L39.4634 95.9141H38.6298C38.1679 95.9141 37.7398 95.869 37.6722 95.8239C37.5934 95.7789 37.1991 94.5059 36.7822 92.985C36.1626 90.6756 35.8472 89.5491 35.1938 87.2171C35.1375 87.0256 34.8108 87.0143 30.3609 87.0143C27.3756 87.0143 25.5618 87.0594 25.5168 87.127C25.4492 87.2284 23.7706 92.0049 22.8806 94.6185C22.4976 95.7563 22.43 95.8577 22.1596 95.8915C21.9907 95.9141 21.8555 95.8915 21.8555 95.8352ZM34.9234 86.237C34.9234 86.1807 34.822 85.8202 34.7094 85.4259C34.5855 85.0316 34.1799 83.5671 33.7969 82.1702C32.8168 78.5539 32.5577 77.5851 31.4537 73.6309L30.9017 71.682L30.6538 72.448C30.5186 72.8649 30.3384 73.3943 30.2483 73.6084C30.1581 73.8224 29.5949 75.3996 29.0091 77.1007C27.6572 80.9873 27.0489 82.7109 26.3504 84.6824C26.0462 85.5385 25.7984 86.2595 25.7984 86.2821C25.7984 86.3159 27.8487 86.3384 30.3609 86.3384C32.9745 86.3384 34.9234 86.2933 34.9234 86.237Z" fill="#FDFEFE"/>
<path id="Vector_6" d="M41.7605 95.8463C41.7154 95.8013 41.6816 90.1122 41.6816 83.2177V70.668L42.6505 70.7018L43.6193 70.7356L44.5994 72.7633C46.1653 76.0416 47.0665 77.9342 48.0466 80.0296C48.5536 81.1111 49.759 83.6458 50.7278 85.6623C51.6854 87.6789 52.7331 89.8644 53.0373 90.5403C53.3527 91.205 53.6231 91.7457 53.6456 91.7457C53.6681 91.7457 53.6681 87.0029 53.6456 81.2125L53.6231 70.6792H53.961H54.299V83.3078V95.9252L53.9948 95.8914C53.7695 95.8689 53.6231 95.7449 53.4879 95.4633C53.3076 95.1141 51.7192 91.7457 50.5025 89.1546C50.2547 88.6252 49.4774 87.0029 48.7789 85.5497C46.4244 80.6267 45.4218 78.5088 45.1852 77.9793C45.05 77.6751 44.3854 76.2894 43.7094 74.8925C43.0222 73.4843 42.459 72.2789 42.4477 72.2113C42.4252 72.1437 42.3914 77.4385 42.3576 83.9725C42.3012 95.8351 42.3012 95.8576 42.0759 95.8914C41.9407 95.9139 41.8056 95.8914 41.7605 95.8463Z" fill="#FDFEFE"/>
<path id="Vector_7" d="M97.3108 83.6125L97.277 71.2993L94.4381 71.2655L91.5879 71.243V70.9613V70.6797H112.429H133.27V70.9613V71.243H122.568H111.866V83.5787V95.9256L110.942 95.8919L110.007 95.8581L109.973 83.5449L109.951 71.243L104.566 71.2655L99.1921 71.2993L99.1583 83.6125L99.1358 95.9144H98.2345H97.3333L97.3108 83.6125Z" fill="#FDFEFE"/>
<path id="Vector_8" d="M66.6924 57.8821C65.0702 57.7018 63.8084 57.3188 62.8396 56.6879C61.3638 55.7416 60.2823 54.4236 59.6289 52.7788C58.8741 50.8524 58.9079 52.2944 58.9417 28.2088L58.9755 6.41006L59.291 5.50882C59.9894 3.51483 61.5666 1.68982 63.3127 0.856178C64.8448 0.123921 65.4644 0 67.5373 0C68.9229 0 69.5088 0.0450599 70.072 0.191511C72.8433 0.957564 75.0063 3.14307 75.9526 6.12842C76.2005 6.93954 76.2117 7.10852 76.2117 10.6909V14.4086L76.0315 14.7916L75.8512 15.1746C75.3217 16.3012 74.3642 17.2024 72.9785 17.9121C72.3702 18.2163 71.8745 18.4979 71.8745 18.5317C71.8745 18.5768 72.1111 18.6894 72.4152 18.8021C74.1163 19.433 75.3668 20.4243 75.9188 21.5621L76.2117 22.1817L76.2455 35.4187C76.268 44.003 76.2342 49.095 76.1667 49.8948C75.9188 52.4183 75.1866 54.2095 73.8009 55.5839C72.7419 56.6316 71.7619 57.2061 70.3762 57.5554C69.3736 57.8032 67.5035 57.9722 66.6924 57.8821ZM68.5174 53.9955C69.351 53.8152 69.8355 53.5449 70.624 52.8126C71.4014 52.0916 72.0322 50.9651 72.2125 49.9399C72.2913 49.5344 72.3139 44.8254 72.3026 36.6466L72.2688 23.9842L72.021 23.5223C71.5703 22.6774 71.3112 22.5197 68.8892 21.5959C68.1456 21.3143 67.4472 20.9876 67.3458 20.8637C66.7149 20.1652 66.7712 16.6504 67.4134 16.0646C67.5486 15.9407 68.1794 15.6816 68.8328 15.4788C70.3875 15.0056 71.2436 14.5437 71.7055 13.9241C72.2688 13.1919 72.3589 12.6061 72.3026 9.8911C72.2575 7.71686 72.2237 7.48028 71.9646 6.78182C71.1648 4.65264 69.8242 3.72887 67.5486 3.74014C65.6672 3.75141 64.4956 4.37101 63.6845 5.79046C62.8058 7.33383 62.8621 5.67781 62.8621 28.9072C62.8621 51.5959 62.8283 50.4243 63.5043 51.6635C63.876 52.3507 64.9913 53.3984 65.6447 53.6913C66.5685 54.0969 67.5373 54.1983 68.5174 53.9955Z" fill="#FDFEFE"/>
<path id="Vector_9" d="M57.6233 53.6805C57.3754 53.5791 57.1051 53.4552 57.0262 53.4102C56.9474 53.3538 56.2376 52.9933 55.449 52.6103C51.5512 50.6726 47.8336 47.3718 45.2988 43.5641C44.5441 42.4263 43.1246 39.655 42.6627 38.4045C40.2519 31.9607 40.3533 25.0774 42.9331 18.8026C45.2312 13.2262 48.9038 9.04666 54.3676 5.81347C55.6293 5.05868 57.7697 4.03352 57.8599 4.13491C57.8824 4.15744 57.8035 4.47287 57.6796 4.84463L57.443 5.5093L56.1137 6.16269C47.8561 10.1957 42.4374 18.5885 42.0544 27.9276C41.9305 31.127 42.4261 34.5292 43.4175 37.2554C45.1862 42.1109 47.7435 45.6933 51.7427 48.904C53.3424 50.1882 54.5929 50.9881 56.3278 51.833C57.0375 52.1709 57.6346 52.4751 57.6571 52.4864C57.7134 52.5314 58.1415 53.8044 58.1077 53.8382C58.0852 53.8608 57.8711 53.7819 57.6233 53.6805Z" fill="#FDFEFE"/>
<path id="Vector_10" d="M77.237 53.1953C77.3384 52.8686 77.4511 52.5645 77.4849 52.5194C77.5299 52.4743 78.1946 52.1251 78.9719 51.7533C81.5404 50.4803 83.4894 49.0609 85.7312 46.8078C88.0068 44.5209 89.0883 42.9888 90.6317 39.8682C93.4706 34.1003 93.9212 27.2058 91.8484 20.9648C90.5979 17.1796 88.4349 13.6422 85.7312 10.9723C83.557 8.82056 81.563 7.38984 78.8818 6.07178L77.5637 5.42964L77.3046 4.75372C77.1582 4.38195 77.0568 4.06652 77.0793 4.04399C77.1469 3.9764 79.6591 5.08041 79.9858 5.31699C80.1435 5.42964 80.5716 5.68875 80.9434 5.9028C85.4383 8.42627 89.3587 12.6283 91.578 17.3373C93.403 21.1901 94.1916 24.626 94.2141 28.7717C94.2254 31.0023 94.0902 32.3204 93.6621 34.4496C92.9073 38.1672 90.9133 42.4368 88.5363 45.3883C86.8578 47.4837 84.492 49.658 82.3516 51.0999C81.225 51.8547 77.5299 53.7811 77.2145 53.7811C77.1018 53.7811 77.1018 53.6685 77.237 53.1953Z" fill="#FDFEFE"/>
</g>
</svg>
