<svg width="17" height="17" viewBox="0 0 17 17" fill="none" xmlns="http://www.w3.org/2000/svg">
<path d="M14.1426 3.54346H2.14258C2.04312 3.54346 1.94774 3.58297 1.87741 3.65329C1.80709 3.72362 1.76758 3.819 1.76758 3.91846V12.4185C1.76758 12.6505 1.85977 12.8731 2.02386 13.0372C2.18795 13.2013 2.41051 13.2935 2.64258 13.2935H13.6426C13.8746 13.2935 14.0972 13.2013 14.2613 13.0372C14.4254 12.8731 14.5176 12.6505 14.5176 12.4185V3.91846C14.5176 3.819 14.4781 3.72362 14.4077 3.65329C14.3374 3.58297 14.242 3.54346 14.1426 3.54346ZM8.14258 8.90971L3.10633 4.29346H13.1788L8.14258 8.90971ZM6.49695 8.41846L2.51758 12.066V4.77096L6.49695 8.41846ZM7.05195 8.92721L7.89258 9.69471C7.96171 9.75795 8.05201 9.79303 8.1457 9.79303C8.2394 9.79303 8.3297 9.75795 8.39883 9.69471L9.23633 8.92721L13.1788 12.5435H3.10695L7.05195 8.92721ZM9.7882 8.41846L13.7676 4.77096V12.066L9.7882 8.41846Z" fill="#F6973F"/>
</svg>
