<svg width="17" height="16" viewBox="0 0 17 16" fill="none" xmlns="http://www.w3.org/2000/svg">
<path d="M14.1423 3.125H2.14233C2.04288 3.125 1.9475 3.16451 1.87717 3.23483C1.80684 3.30516 1.76733 3.40054 1.76733 3.5V12C1.76733 12.2321 1.85952 12.4546 2.02362 12.6187C2.18771 12.7828 2.41027 12.875 2.64233 12.875H13.6423C13.8744 12.875 14.097 12.7828 14.2611 12.6187C14.4251 12.4546 14.5173 12.2321 14.5173 12V3.5C14.5173 3.40054 14.4778 3.30516 14.4075 3.23483C14.3372 3.16451 14.2418 3.125 14.1423 3.125ZM8.14233 8.49125L3.10608 3.875H13.1786L8.14233 8.49125ZM6.49671 8L2.51733 11.6475V4.3525L6.49671 8ZM7.05171 8.50875L7.89233 9.27625C7.96146 9.33949 8.05176 9.37457 8.14546 9.37457C8.23915 9.37457 8.32945 9.33949 8.39858 9.27625L9.23608 8.50875L13.1786 12.125H3.10671L7.05171 8.50875ZM9.78796 8L13.7673 4.3525V11.6475L9.78796 8Z" fill="#6C8082"/>
</svg>
