<svg width="17" height="17" viewBox="0 0 17 17" fill="none" xmlns="http://www.w3.org/2000/svg">
<g id="ph:facebook-logo-light">
<path id="Vector" d="M8.07032 2.04346C6.80946 2.04346 5.57692 2.41734 4.52855 3.11784C3.48019 3.81833 2.66309 4.81397 2.18058 5.97885C1.69807 7.14373 1.57183 8.42553 1.81781 9.66216C2.06379 10.8988 2.67095 12.0347 3.56251 12.9263C4.45407 13.8178 5.58999 14.425 6.82661 14.671C8.06324 14.9169 9.34504 14.7907 10.5099 14.3082C11.6748 13.8257 12.6704 13.0086 13.3709 11.9602C14.0714 10.9119 14.4453 9.67931 14.4453 8.41846C14.4433 6.72831 13.771 5.10796 12.5759 3.91284C11.3808 2.71773 9.76046 2.04544 8.07032 2.04346ZM8.44532 14.031V9.79346H10.0703C10.1698 9.79346 10.2652 9.75395 10.3355 9.68362C10.4058 9.6133 10.4453 9.51791 10.4453 9.41846C10.4453 9.319 10.4058 9.22362 10.3355 9.15329C10.2652 9.08297 10.1698 9.04346 10.0703 9.04346H8.44532V7.41846C8.44532 7.12009 8.56384 6.83394 8.77482 6.62296C8.9858 6.41198 9.27195 6.29346 9.57032 6.29346H10.5703C10.6698 6.29346 10.7652 6.25395 10.8355 6.18362C10.9058 6.1133 10.9453 6.01791 10.9453 5.91846C10.9453 5.819 10.9058 5.72362 10.8355 5.65329C10.7652 5.58297 10.6698 5.54346 10.5703 5.54346H9.57032C9.07303 5.54346 8.59612 5.741 8.24449 6.09263C7.89286 6.44426 7.69532 6.92118 7.69532 7.41846V9.04346H6.07032C5.97086 9.04346 5.87548 9.08297 5.80515 9.15329C5.73482 9.22362 5.69532 9.319 5.69532 9.41846C5.69532 9.51791 5.73482 9.6133 5.80515 9.68362C5.87548 9.75395 5.97086 9.79346 6.07032 9.79346H7.69532V14.031C6.2392 13.9337 4.8779 13.2743 3.89888 12.192C2.91986 11.1098 2.39977 9.68941 2.44844 8.23087C2.49712 6.77232 3.11074 5.38978 4.15973 4.37521C5.20872 3.36064 6.61096 2.79347 8.07032 2.79347C9.52967 2.79347 10.9319 3.36064 11.9809 4.37521C13.0299 5.38978 13.6435 6.77232 13.6922 8.23087C13.7409 9.68941 13.2208 11.1098 12.2418 12.192C11.2627 13.2743 9.90143 13.9337 8.44532 14.031Z" fill="#F6973F"/>
</g>
</svg>
