<svg width="17" height="16" viewBox="0 0 17 16" fill="none" xmlns="http://www.w3.org/2000/svg">
<path d="M8.07111 1.625C6.81025 1.625 5.57771 1.99889 4.52934 2.69938C3.48098 3.39988 2.66388 4.39551 2.18137 5.56039C1.69886 6.72527 1.57262 8.00707 1.8186 9.2437C2.06458 10.4803 2.67174 11.6162 3.5633 12.5078C4.45486 13.3994 5.59078 14.0065 6.8274 14.2525C8.06403 14.4985 9.34583 14.3722 10.5107 13.8897C11.6756 13.4072 12.6712 12.5901 13.3717 11.5418C14.0722 10.4934 14.4461 9.26086 14.4461 8C14.4441 6.30985 13.7718 4.6895 12.5767 3.49439C11.3816 2.29927 9.76125 1.62698 8.07111 1.625ZM8.44611 13.6125V9.375H10.0711C10.1706 9.375 10.2659 9.33549 10.3363 9.26517C10.4066 9.19484 10.4461 9.09946 10.4461 9C10.4461 8.90054 10.4066 8.80516 10.3363 8.73483C10.2659 8.66451 10.1706 8.625 10.0711 8.625H8.44611V7C8.44611 6.70163 8.56463 6.41548 8.77561 6.2045C8.98659 5.99353 9.27274 5.875 9.57111 5.875H10.5711C10.6706 5.875 10.7659 5.83549 10.8363 5.76516C10.9066 5.69484 10.9461 5.59946 10.9461 5.5C10.9461 5.40054 10.9066 5.30516 10.8363 5.23484C10.7659 5.16451 10.6706 5.125 10.5711 5.125H9.57111C9.07382 5.125 8.59691 5.32254 8.24528 5.67417C7.89365 6.02581 7.69611 6.50272 7.69611 7V8.625H6.07111C5.97165 8.625 5.87627 8.66451 5.80594 8.73483C5.73561 8.80516 5.69611 8.90054 5.69611 9C5.69611 9.09946 5.73561 9.19484 5.80594 9.26517C5.87627 9.33549 5.97165 9.375 6.07111 9.375H7.69611V13.6125C6.23999 13.5152 4.87869 12.8558 3.89967 11.7736C2.92065 10.6913 2.40056 9.27096 2.44923 7.81241C2.49791 6.35386 3.11153 4.97132 4.16052 3.95675C5.20951 2.94219 6.61175 2.37501 8.07111 2.37501C9.53046 2.37501 10.9327 2.94219 11.9817 3.95675C13.0307 4.97132 13.6443 6.35386 13.693 7.81241C13.7416 9.27096 13.2216 10.6913 12.2425 11.7736C11.2635 12.8558 9.90222 13.5152 8.44611 13.6125Z" fill="#6C8082"/>
</svg>
