<svg width="17" height="17" viewBox="0 0 17 17" fill="none" xmlns="http://www.w3.org/2000/svg">
<g id="ph:instagram-logo-light">
<path id="Vector" d="M8.07031 5.54346C7.50169 5.54346 6.94584 5.71207 6.47305 6.02798C6.00026 6.34389 5.63176 6.7929 5.41416 7.31824C5.19656 7.84358 5.13962 8.42165 5.25056 8.97934C5.36149 9.53704 5.6353 10.0493 6.03738 10.4514C6.43946 10.8535 6.95173 11.1273 7.50943 11.2382C8.06712 11.3491 8.64519 11.2922 9.17053 11.0746C9.69586 10.857 10.1449 10.4885 10.4608 10.0157C10.7767 9.54293 10.9453 8.98708 10.9453 8.41846C10.9443 7.65626 10.6411 6.92557 10.1021 6.38662C9.5632 5.84767 8.83251 5.54445 8.07031 5.54346ZM8.07031 10.5435C7.65003 10.5435 7.23918 10.4188 6.88973 10.1853C6.54027 9.95183 6.2679 9.61995 6.10707 9.23166C5.94623 8.84337 5.90415 8.4161 5.98614 8.00389C6.06814 7.59168 6.27052 7.21304 6.56771 6.91585C6.8649 6.61867 7.24354 6.41628 7.65575 6.33429C8.06796 6.25229 8.49522 6.29438 8.88351 6.45521C9.27181 6.61605 9.60369 6.88842 9.83719 7.23787C10.0707 7.58732 10.1953 7.99817 10.1953 8.41846C10.1953 8.98204 9.97143 9.52254 9.57291 9.92106C9.1744 10.3196 8.6339 10.5435 8.07031 10.5435ZM11.0703 2.04346H5.07031C4.17551 2.04445 3.31764 2.40035 2.68492 3.03307C2.0522 3.66579 1.69631 4.52366 1.69531 5.41846V11.4185C1.69631 12.3133 2.0522 13.1711 2.68492 13.8038C3.31764 14.4366 4.17551 14.7925 5.07031 14.7935H11.0703C11.9651 14.7925 12.823 14.4366 13.4557 13.8038C14.0884 13.1711 14.4443 12.3133 14.4453 11.4185V5.41846C14.4443 4.52366 14.0884 3.66579 13.4557 3.03307C12.823 2.40035 11.9651 2.04445 11.0703 2.04346ZM13.6953 11.4185C13.6953 12.1147 13.4188 12.7823 12.9265 13.2746C12.4342 13.7669 11.7665 14.0435 11.0703 14.0435H5.07031C4.37412 14.0435 3.70644 13.7669 3.21416 13.2746C2.72187 12.7823 2.44531 12.1147 2.44531 11.4185V5.41846C2.44531 4.72226 2.72187 4.05458 3.21416 3.5623C3.70644 3.07002 4.37412 2.79346 5.07031 2.79346H11.0703C11.7665 2.79346 12.4342 3.07002 12.9265 3.5623C13.4188 4.05458 13.6953 4.72226 13.6953 5.41846V11.4185ZM11.9453 5.16846C11.9453 5.29207 11.9087 5.41291 11.84 5.51569C11.7713 5.61847 11.6737 5.69858 11.5595 5.74588C11.4453 5.79319 11.3196 5.80556 11.1984 5.78145C11.0771 5.75733 10.9658 5.69781 10.8784 5.6104C10.791 5.52299 10.7314 5.41163 10.7073 5.29039C10.6832 5.16915 10.6956 5.04348 10.7429 4.92928C10.7902 4.81508 10.8703 4.71746 10.9731 4.64879C11.0759 4.58011 11.1967 4.54346 11.3203 4.54346C11.4861 4.54346 11.645 4.60931 11.7623 4.72652C11.8795 4.84373 11.9453 5.0027 11.9453 5.16846Z" fill="#F6973F"/>
</g>
</svg>
