<svg width="17" height="16" viewBox="0 0 17 16" fill="none" xmlns="http://www.w3.org/2000/svg">
<path d="M8.07111 5.125C7.50248 5.125 6.94663 5.29362 6.47384 5.60952C6.00105 5.92543 5.63255 6.37445 5.41495 6.89979C5.19735 7.42512 5.14042 8.00319 5.25135 8.56088C5.36228 9.11858 5.6361 9.63086 6.03817 10.0329C6.44025 10.435 6.95253 10.7088 7.51022 10.8198C8.06792 10.9307 8.64598 10.8738 9.17132 10.6562C9.69666 10.4386 10.1457 10.0701 10.4616 9.59726C10.7775 9.12447 10.9461 8.56862 10.9461 8C10.9451 7.23781 10.6419 6.50712 10.1029 5.96816C9.56399 5.42921 8.8333 5.12599 8.07111 5.125ZM8.07111 10.125C7.65082 10.125 7.23997 10.0004 6.89052 9.76687C6.54106 9.53338 6.2687 9.20149 6.10786 8.8132C5.94703 8.42491 5.90494 7.99764 5.98694 7.58543C6.06893 7.17322 6.27132 6.79458 6.5685 6.4974C6.86569 6.20021 7.24433 5.99782 7.65654 5.91583C8.06875 5.83384 8.49602 5.87592 8.88431 6.03676C9.2726 6.19759 9.60448 6.46996 9.83798 6.81941C10.0715 7.16887 10.1961 7.57971 10.1961 8C10.1961 8.56359 9.97222 9.10409 9.57371 9.5026C9.17519 9.90112 8.63469 10.125 8.07111 10.125ZM11.0711 1.625H5.07111C4.1763 1.62599 3.31844 1.98189 2.68572 2.61461C2.053 3.24733 1.6971 4.1052 1.69611 5V11C1.6971 11.8948 2.053 12.7527 2.68572 13.3854C3.31844 14.0181 4.1763 14.374 5.07111 14.375H11.0711C11.9659 14.374 12.8238 14.0181 13.4565 13.3854C14.0892 12.7527 14.4451 11.8948 14.4461 11V5C14.4451 4.1052 14.0892 3.24733 13.4565 2.61461C12.8238 1.98189 11.9659 1.62599 11.0711 1.625ZM13.6961 11C13.6961 11.6962 13.4195 12.3639 12.9273 12.8562C12.435 13.3484 11.7673 13.625 11.0711 13.625H5.07111C4.37491 13.625 3.70723 13.3484 3.21495 12.8562C2.72267 12.3639 2.44611 11.6962 2.44611 11V5C2.44611 4.30381 2.72267 3.63613 3.21495 3.14384C3.70723 2.65156 4.37491 2.375 5.07111 2.375H11.0711C11.7673 2.375 12.435 2.65156 12.9273 3.14384C13.4195 3.63613 13.6961 4.30381 13.6961 5V11ZM11.9461 4.75C11.9461 4.87361 11.9095 4.99445 11.8408 5.09723C11.7721 5.20001 11.6745 5.28012 11.5603 5.32742C11.4461 5.37473 11.3204 5.38711 11.1992 5.36299C11.0779 5.33888 10.9666 5.27935 10.8792 5.19194C10.7918 5.10453 10.7322 4.99317 10.7081 4.87193C10.684 4.75069 10.6964 4.62503 10.7437 4.51082C10.791 4.39662 10.8711 4.29901 10.9739 4.23033C11.0767 4.16166 11.1975 4.125 11.3211 4.125C11.4869 4.125 11.6458 4.19085 11.763 4.30806C11.8803 4.42527 11.9461 4.58424 11.9461 4.75Z" fill="#6C8082"/>
</svg>
