<svg width="17" height="17" viewBox="0 0 17 17" fill="none" xmlns="http://www.w3.org/2000/svg">
<g id="ph:linkedin-logo-light">
<path id="Vector" d="M13.5703 2.04346H2.57031C2.33825 2.04346 2.11569 2.13564 1.95159 2.29974C1.7875 2.46383 1.69531 2.68639 1.69531 2.91846V13.9185C1.69531 14.1505 1.7875 14.3731 1.95159 14.5372C2.11569 14.7013 2.33825 14.7935 2.57031 14.7935H13.5703C13.8024 14.7935 14.0249 14.7013 14.189 14.5372C14.3531 14.3731 14.4453 14.1505 14.4453 13.9185V2.91846C14.4453 2.68639 14.3531 2.46383 14.189 2.29974C14.0249 2.13564 13.8024 2.04346 13.5703 2.04346ZM13.6953 13.9185C13.6953 13.9516 13.6821 13.9834 13.6587 14.0068C13.6353 14.0303 13.6035 14.0435 13.5703 14.0435H2.57031C2.53716 14.0435 2.50537 14.0303 2.48192 14.0068C2.45848 13.9834 2.44531 13.9516 2.44531 13.9185V2.91846C2.44531 2.8853 2.45848 2.85351 2.48192 2.83007C2.50537 2.80663 2.53716 2.79346 2.57031 2.79346H13.5703C13.6035 2.79346 13.6353 2.80663 13.6587 2.83007C13.6821 2.85351 13.6953 2.8853 13.6953 2.91846V13.9185ZM5.94531 7.41846V11.4185C5.94531 11.5179 5.9058 11.6133 5.83548 11.6836C5.76515 11.7539 5.66977 11.7935 5.57031 11.7935C5.47086 11.7935 5.37547 11.7539 5.30515 11.6836C5.23482 11.6133 5.19531 11.5179 5.19531 11.4185V7.41846C5.19531 7.319 5.23482 7.22362 5.30515 7.15329C5.37547 7.08297 5.47086 7.04346 5.57031 7.04346C5.66977 7.04346 5.76515 7.08297 5.83548 7.15329C5.9058 7.22362 5.94531 7.319 5.94531 7.41846ZM11.4453 9.16846V11.4185C11.4453 11.5179 11.4058 11.6133 11.3355 11.6836C11.2652 11.7539 11.1698 11.7935 11.0703 11.7935C10.9709 11.7935 10.8755 11.7539 10.8051 11.6836C10.7348 11.6133 10.6953 11.5179 10.6953 11.4185V9.16846C10.6953 8.80378 10.5504 8.45405 10.2926 8.19619C10.0347 7.93832 9.68499 7.79346 9.32031 7.79346C8.95564 7.79346 8.6059 7.93832 8.34804 8.19619C8.09018 8.45405 7.94531 8.80378 7.94531 9.16846V11.4185C7.94531 11.5179 7.9058 11.6133 7.83548 11.6836C7.76515 11.7539 7.66977 11.7935 7.57031 11.7935C7.47086 11.7935 7.37547 11.7539 7.30515 11.6836C7.23482 11.6133 7.19531 11.5179 7.19531 11.4185V7.41846C7.19531 7.319 7.23482 7.22362 7.30515 7.15329C7.37547 7.08297 7.47086 7.04346 7.57031 7.04346C7.66977 7.04346 7.76515 7.08297 7.83548 7.15329C7.9058 7.22362 7.94531 7.319 7.94531 7.41846V7.55033C8.25436 7.28805 8.63197 7.11964 9.03361 7.06495C9.43524 7.01026 9.84414 7.07158 10.2121 7.24168C10.58 7.41178 10.8916 7.68355 11.1101 8.02495C11.3286 8.36635 11.4449 8.76312 11.4453 9.16846ZM6.19531 5.66846C6.19531 5.79207 6.15866 5.91291 6.08998 6.01569C6.02131 6.11847 5.92369 6.19858 5.80949 6.24588C5.69529 6.29319 5.56962 6.30556 5.44838 6.28145C5.32714 6.25733 5.21578 6.19781 5.12837 6.1104C5.04096 6.02299 4.98144 5.91163 4.95732 5.79039C4.93321 5.66915 4.94558 5.54348 4.99289 5.42928C5.04019 5.31508 5.1203 5.21746 5.22308 5.14879C5.32586 5.08011 5.4467 5.04346 5.57031 5.04346C5.73607 5.04346 5.89504 5.10931 6.01225 5.22652C6.12946 5.34373 6.19531 5.5027 6.19531 5.66846Z" fill="#F6973F"/>
</g>
</svg>
