<svg width="17" height="16" viewBox="0 0 17 16" fill="none" xmlns="http://www.w3.org/2000/svg">
<path d="M13.5711 1.625H2.57111C2.33904 1.625 2.11648 1.71719 1.95239 1.88128C1.78829 2.04538 1.69611 2.26794 1.69611 2.5V13.5C1.69611 13.7321 1.78829 13.9546 1.95239 14.1187C2.11648 14.2828 2.33904 14.375 2.57111 14.375H13.5711C13.8032 14.375 14.0257 14.2828 14.1898 14.1187C14.3539 13.9546 14.4461 13.7321 14.4461 13.5V2.5C14.4461 2.26794 14.3539 2.04538 14.1898 1.88128C14.0257 1.71719 13.8032 1.625 13.5711 1.625ZM13.6961 13.5C13.6961 13.5332 13.6829 13.5649 13.6595 13.5884C13.6361 13.6118 13.6043 13.625 13.5711 13.625H2.57111C2.53795 13.625 2.50616 13.6118 2.48272 13.5884C2.45928 13.5649 2.44611 13.5332 2.44611 13.5V2.5C2.44611 2.46685 2.45928 2.43505 2.48272 2.41161C2.50616 2.38817 2.53795 2.375 2.57111 2.375H13.5711C13.6043 2.375 13.6361 2.38817 13.6595 2.41161C13.6829 2.43505 13.6961 2.46685 13.6961 2.5V13.5ZM5.94611 7V11C5.94611 11.0995 5.9066 11.1948 5.83627 11.2652C5.76594 11.3355 5.67056 11.375 5.57111 11.375C5.47165 11.375 5.37627 11.3355 5.30594 11.2652C5.23562 11.1948 5.19611 11.0995 5.19611 11V7C5.19611 6.90054 5.23562 6.80516 5.30594 6.73484C5.37627 6.66451 5.47165 6.625 5.57111 6.625C5.67056 6.625 5.76594 6.66451 5.83627 6.73484C5.9066 6.80516 5.94611 6.90054 5.94611 7ZM11.4461 8.75V11C11.4461 11.0995 11.4066 11.1948 11.3363 11.2652C11.2659 11.3355 11.1706 11.375 11.0711 11.375C10.9717 11.375 10.8763 11.3355 10.8059 11.2652C10.7356 11.1948 10.6961 11.0995 10.6961 11V8.75C10.6961 8.38533 10.5512 8.03559 10.2934 7.77773C10.0355 7.51987 9.68578 7.375 9.32111 7.375C8.95643 7.375 8.6067 7.51987 8.34883 7.77773C8.09097 8.03559 7.94611 8.38533 7.94611 8.75V11C7.94611 11.0995 7.9066 11.1948 7.83627 11.2652C7.76594 11.3355 7.67056 11.375 7.57111 11.375C7.47165 11.375 7.37627 11.3355 7.30594 11.2652C7.23561 11.1948 7.19611 11.0995 7.19611 11V7C7.19611 6.90054 7.23561 6.80516 7.30594 6.73484C7.37627 6.66451 7.47165 6.625 7.57111 6.625C7.67056 6.625 7.76594 6.66451 7.83627 6.73484C7.9066 6.80516 7.94611 6.90054 7.94611 7V7.13188C8.25515 6.8696 8.63277 6.70118 9.0344 6.64649C9.43603 6.5918 9.84493 6.65312 10.2129 6.82322C10.5808 6.99332 10.8924 7.2651 11.1109 7.60649C11.3294 7.94789 11.4457 8.34466 11.4461 8.75ZM6.19611 5.25C6.19611 5.37361 6.15945 5.49445 6.09077 5.59723C6.0221 5.70001 5.92449 5.78012 5.81028 5.82742C5.69608 5.87473 5.57041 5.88711 5.44917 5.86299C5.32794 5.83888 5.21657 5.77935 5.12916 5.69194C5.04176 5.60453 4.98223 5.49317 4.95812 5.37193C4.934 5.25069 4.94638 5.12503 4.99368 5.01082C5.04099 4.89662 5.12109 4.79901 5.22387 4.73033C5.32666 4.66166 5.44749 4.625 5.57111 4.625C5.73687 4.625 5.89584 4.69085 6.01305 4.80806C6.13026 4.92527 6.19611 5.08424 6.19611 5.25Z" fill="#6C8082"/>
</svg>
