<svg width="17" height="17" viewBox="0 0 17 17" fill="none" xmlns="http://www.w3.org/2000/svg">
<path d="M9.78008 2.82159C9.79278 2.77397 9.81474 2.72932 9.8447 2.69019C9.87467 2.65106 9.91205 2.61822 9.95471 2.59356C9.99738 2.56889 10.0445 2.55287 10.0933 2.54642C10.1422 2.53997 10.1919 2.54321 10.2395 2.55596C11.1452 2.79222 11.9716 3.26569 12.6335 3.92757C13.2954 4.58946 13.7688 5.41584 14.0051 6.32159C14.0178 6.36919 14.0211 6.41884 14.0146 6.4677C14.0082 6.51656 13.9922 6.56367 13.9675 6.60633C13.9428 6.649 13.91 6.68638 13.8709 6.71634C13.8317 6.74631 13.7871 6.76827 13.7395 6.78096C13.7079 6.78938 13.6753 6.79358 13.6426 6.79346C13.56 6.79351 13.4796 6.76627 13.4141 6.71598C13.3485 6.66569 13.3014 6.59515 13.2801 6.51534C13.0772 5.73733 12.6706 5.02748 12.1021 4.45896C11.5336 3.89044 10.8237 3.4838 10.0457 3.28096C9.99809 3.26827 9.95344 3.24631 9.91431 3.21634C9.87518 3.18638 9.84235 3.149 9.81768 3.10633C9.79301 3.06367 9.77699 3.01656 9.77054 2.9677C9.76409 2.91884 9.76733 2.86919 9.78008 2.82159ZM9.54571 5.28096C10.4551 5.52346 11.0376 6.10596 11.2801 7.01534C11.3014 7.09515 11.3485 7.16569 11.4141 7.21598C11.4796 7.26627 11.56 7.29351 11.6426 7.29346C11.6753 7.29358 11.7079 7.28938 11.7395 7.28096C11.7871 7.26827 11.8317 7.24631 11.8709 7.21634C11.91 7.18638 11.9428 7.149 11.9675 7.10633C11.9922 7.06367 12.0082 7.01656 12.0146 6.9677C12.0211 6.91884 12.0178 6.86919 12.0051 6.82159C11.6926 5.65221 10.9088 4.86846 9.73946 4.55596C9.69186 4.54324 9.64221 4.54002 9.59336 4.54648C9.54451 4.55295 9.49742 4.56897 9.45476 4.59363C9.36861 4.64345 9.30578 4.72545 9.28008 4.82159C9.25439 4.91773 9.26794 5.02014 9.31776 5.10629C9.36757 5.19244 9.44957 5.25527 9.54571 5.28096ZM14.5107 11.3435C14.4036 12.1605 14.0027 12.9105 13.3828 13.4535C12.763 13.9964 11.9666 14.295 11.1426 14.2935C6.24883 14.2935 2.26758 10.3122 2.26758 5.41846C2.26601 4.59474 2.56435 3.79861 3.10688 3.17879C3.64941 2.55896 4.39903 2.15784 5.21571 2.05034C5.40371 2.02749 5.59404 2.06625 5.75813 2.16081C5.92222 2.25536 6.0512 2.4006 6.12571 2.57471L7.44446 5.51846C7.50269 5.65173 7.52678 5.79741 7.51456 5.94233C7.50234 6.08724 7.45418 6.22683 7.37446 6.34846C7.36642 6.36084 7.35765 6.37274 7.34821 6.38409L6.03133 7.95034C6.02334 7.96657 6.01918 7.98443 6.01918 8.00252C6.01918 8.02062 6.02334 8.03848 6.03133 8.05471C6.51008 9.03471 7.53758 10.0547 8.53133 10.5328C8.54793 10.5404 8.56605 10.544 8.58428 10.5434C8.6025 10.5427 8.62032 10.5378 8.63633 10.5291L10.1795 9.21659C10.1905 9.207 10.2022 9.19823 10.2145 9.19034C10.3356 9.1096 10.4749 9.06035 10.6198 9.04704C10.7647 9.03372 10.9107 9.05677 11.0445 9.11409L13.997 10.4372C14.1688 10.5134 14.3115 10.6428 14.404 10.8063C14.4965 10.9699 14.5339 11.1589 14.5107 11.3453V11.3435ZM13.7676 11.251C13.7697 11.2248 13.7635 11.1987 13.7499 11.1763C13.7364 11.1538 13.7161 11.1362 13.692 11.126L10.7388 9.80284C10.7227 9.79661 10.7054 9.79395 10.6882 9.79503C10.6709 9.7961 10.6541 9.8009 10.6388 9.80909L9.09633 11.1216C9.08508 11.131 9.07321 11.1397 9.06133 11.1478C8.93551 11.2317 8.79009 11.2816 8.63926 11.2926C8.48843 11.3035 8.33733 11.2752 8.20071 11.2103C7.05321 10.656 5.90946 9.52284 5.35508 8.38596C5.28988 8.25013 5.26086 8.09977 5.27082 7.94943C5.28078 7.79909 5.3294 7.65387 5.41196 7.52784C5.42001 7.5153 5.42899 7.50339 5.43883 7.49221L6.75508 5.92596C6.76261 5.90959 6.7665 5.89179 6.7665 5.87377C6.7665 5.85576 6.76261 5.83796 6.75508 5.82159L5.43883 2.87534C5.43015 2.85169 5.41452 2.83122 5.394 2.81661C5.37348 2.802 5.34902 2.79393 5.32383 2.79346H5.30946C4.6738 2.87802 4.09065 3.19105 3.66889 3.6741C3.24714 4.15716 3.01563 4.7772 3.01758 5.41846C3.01758 9.89846 6.66258 13.5435 11.1426 13.5435C11.7839 13.5454 12.4041 13.3138 12.8871 12.8919C13.3702 12.47 13.6832 11.8867 13.7676 11.251Z" fill="#F6973F"/>
</svg>
