<svg width="17" height="16" viewBox="0 0 17 16" fill="none" xmlns="http://www.w3.org/2000/svg">
<path d="M9.77984 2.40313C9.79254 2.35551 9.81449 2.31086 9.84446 2.27173C9.87442 2.23261 9.91181 2.19977 9.95447 2.1751C9.99713 2.15043 10.0442 2.13441 10.0931 2.12796C10.142 2.12151 10.1916 2.12475 10.2392 2.1375C11.145 2.37377 11.9713 2.84723 12.6332 3.50912C13.2951 4.17101 13.7686 4.99739 14.0048 5.90313C14.0176 5.95073 14.0208 6.00039 14.0144 6.04924C14.0079 6.0981 13.9919 6.14521 13.9672 6.18788C13.9426 6.23054 13.9097 6.26792 13.8706 6.29789C13.8315 6.32785 13.7868 6.34981 13.7392 6.3625C13.7076 6.37092 13.675 6.37512 13.6423 6.375C13.5597 6.37506 13.4794 6.34782 13.4138 6.29752C13.3483 6.24723 13.3012 6.1767 13.2798 6.09688C13.077 5.31887 12.6704 4.60903 12.1018 4.0405C11.5333 3.47198 10.8235 3.06534 10.0455 2.8625C9.99785 2.84981 9.9532 2.82785 9.91407 2.79789C9.87494 2.76792 9.8421 2.73054 9.81743 2.68788C9.79276 2.64521 9.77675 2.5981 9.7703 2.54924C9.76384 2.50039 9.76709 2.45073 9.77984 2.40313ZM9.54546 4.8625C10.4548 5.10501 11.0373 5.6875 11.2798 6.59688C11.3012 6.6767 11.3483 6.74723 11.4138 6.79752C11.4794 6.84782 11.5597 6.87506 11.6423 6.875C11.675 6.87512 11.7076 6.87092 11.7392 6.8625C11.7868 6.84981 11.8315 6.82785 11.8706 6.79789C11.9097 6.76792 11.9426 6.73054 11.9672 6.68788C11.9919 6.64521 12.0079 6.5981 12.0144 6.54924C12.0208 6.50039 12.0176 6.45073 12.0048 6.40313C11.6923 5.23375 10.9086 4.45 9.73922 4.1375C9.69161 4.12478 9.64197 4.12156 9.59312 4.12803C9.54427 4.13449 9.49717 4.15051 9.45451 4.17518C9.36837 4.22499 9.30553 4.30699 9.27984 4.40313C9.25415 4.49927 9.2677 4.60168 9.31751 4.68783C9.36733 4.77398 9.44932 4.83681 9.54546 4.8625ZM14.5105 10.925C14.4034 11.742 14.0024 12.4921 13.3826 13.035C12.7627 13.5779 11.9663 13.8765 11.1423 13.875C6.24859 13.875 2.26734 9.89375 2.26734 5C2.26576 4.17628 2.5641 3.38015 3.10663 2.76033C3.64917 2.14051 4.39879 1.73938 5.21547 1.63188C5.40346 1.60903 5.5938 1.6478 5.75789 1.74235C5.92198 1.83691 6.05096 1.98214 6.12547 2.15625L7.44422 5.1C7.50244 5.23327 7.52654 5.37895 7.51431 5.52387C7.50209 5.66879 7.45394 5.80837 7.37422 5.93C7.36617 5.94239 7.35741 5.95428 7.34797 5.96563L6.03109 7.53188C6.02309 7.54812 6.01894 7.56597 6.01894 7.58407C6.01894 7.60216 6.02309 7.62002 6.03109 7.63625C6.50984 8.61625 7.53734 9.63626 8.53109 10.1144C8.54768 10.1219 8.56581 10.1255 8.58403 10.1249C8.60226 10.1242 8.62008 10.1194 8.63609 10.1106L10.1792 8.79813C10.1902 8.78854 10.2019 8.77977 10.2142 8.77188C10.3353 8.69115 10.4746 8.64189 10.6196 8.62858C10.7645 8.61526 10.9104 8.63831 11.0442 8.69563L13.9967 10.0188C14.1685 10.0949 14.3112 10.2243 14.4038 10.3879C14.4963 10.5514 14.5337 10.7404 14.5105 10.9269V10.925ZM13.7673 10.8325C13.7694 10.8064 13.7633 10.7802 13.7497 10.7578C13.7361 10.7354 13.7158 10.7178 13.6917 10.7075L10.7386 9.38438C10.7225 9.37815 10.7052 9.37549 10.6879 9.37657C10.6706 9.37765 10.6538 9.38244 10.6386 9.39063L9.09609 10.7031C9.08484 10.7125 9.07297 10.7213 9.06109 10.7294C8.93527 10.8133 8.78985 10.8631 8.63902 10.8741C8.48818 10.885 8.33709 10.8567 8.20046 10.7919C7.05296 10.2375 5.90922 9.10438 5.35484 7.9675C5.28964 7.83168 5.26061 7.68131 5.27058 7.53097C5.28054 7.38063 5.32916 7.23542 5.41172 7.10938C5.41976 7.09684 5.42875 7.08494 5.43859 7.07375L6.75484 5.5075C6.76236 5.49113 6.76626 5.47333 6.76626 5.45532C6.76626 5.4373 6.76236 5.4195 6.75484 5.40313L5.43859 2.45688C5.4299 2.43323 5.41428 2.41276 5.39375 2.39815C5.37323 2.38354 5.34878 2.37547 5.32359 2.375H5.30922C4.67355 2.45956 4.0904 2.77259 3.66865 3.25565C3.2469 3.7387 3.01538 4.35875 3.01734 5C3.01734 9.48 6.66234 13.125 11.1423 13.125C11.7837 13.1269 12.4038 12.8953 12.8869 12.4735C13.37 12.0516 13.6829 11.4683 13.7673 10.8325Z" fill="#6C8082"/>
</svg>
