<svg width="17" height="17" viewBox="0 0 17 17" fill="none" xmlns="http://www.w3.org/2000/svg">
<path d="M11.8095 9.58283L9.80946 8.58283C9.75039 8.55345 9.68462 8.54018 9.61877 8.54435C9.55293 8.54852 9.48936 8.56999 9.43446 8.60658L8.45446 9.25971C7.95834 9.00573 7.55469 8.60209 7.30071 8.10596L7.95446 7.12658C7.99106 7.07169 8.01253 7.00811 8.0167 6.94227C8.02086 6.87643 8.00759 6.81065 7.97821 6.75158L6.97821 4.75158C6.94712 4.68901 6.89916 4.63637 6.83975 4.59959C6.78034 4.56282 6.71184 4.54338 6.64196 4.54346C6.01207 4.54346 5.40798 4.79368 4.96258 5.23908C4.51719 5.68448 4.26696 6.28857 4.26696 6.91846C4.26862 8.34349 4.83544 9.70968 5.84309 10.7173C6.85074 11.725 8.21693 12.2918 9.64196 12.2935C10.2719 12.2935 10.8759 12.0432 11.3213 11.5978C11.7667 11.1524 12.017 10.5483 12.017 9.91846C12.017 9.84876 11.9976 9.78043 11.9609 9.72115C11.9243 9.66186 11.8718 9.61397 11.8095 9.58283ZM9.64196 11.5435C8.41579 11.542 7.24027 11.0542 6.37324 10.1872C5.50621 9.32015 5.01845 8.14463 5.01696 6.91846C5.017 6.52627 5.15887 6.14732 5.41641 5.85154C5.67394 5.55575 6.02976 5.36308 6.41821 5.30908L7.20946 6.89158L6.56009 7.86533C6.52597 7.91669 6.50504 7.97567 6.49915 8.03704C6.49326 8.09842 6.5026 8.1603 6.52634 8.21721C6.87117 9.03706 7.52337 9.68925 8.34321 10.0341C8.40012 10.0578 8.462 10.0672 8.52338 10.0613C8.58475 10.0554 8.64373 10.0345 8.69509 10.0003L9.66884 9.35096L11.2513 10.1422C11.1973 10.5307 11.0047 10.8865 10.7089 11.144C10.4131 11.4015 10.0342 11.5434 9.64196 11.5435ZM8.14196 2.04346C7.03683 2.04323 5.95062 2.33029 4.98989 2.87648C4.02917 3.42267 3.22693 4.20923 2.66189 5.15899C2.09685 6.10876 1.78841 7.18909 1.76684 8.29401C1.74527 9.39894 2.0113 10.4905 2.53884 11.4616L1.81259 13.641C1.76117 13.7951 1.75371 13.9606 1.79104 14.1187C1.82837 14.2769 1.90901 14.4216 2.02393 14.5365C2.13885 14.6514 2.2835 14.7321 2.44167 14.7694C2.59985 14.8067 2.76529 14.7992 2.91946 14.7478L5.09884 14.0216C5.95195 14.4845 6.89952 14.7466 7.86929 14.7877C8.83905 14.8289 9.80541 14.648 10.6947 14.259C11.5839 13.8699 12.3726 13.283 13.0006 12.5428C13.6285 11.8027 14.0792 10.929 14.3182 9.9882C14.5572 9.04745 14.5782 8.06454 14.3797 7.11443C14.1812 6.16431 13.7683 5.27208 13.1725 4.50577C12.5768 3.73945 11.814 3.11929 10.9421 2.69257C10.0703 2.26585 9.1126 2.04383 8.14196 2.04346ZM8.14196 14.0435C7.15317 14.0437 6.18179 13.7833 5.32571 13.2885C5.26864 13.2557 5.20404 13.2382 5.13821 13.2378C5.09786 13.2381 5.0578 13.2446 5.01946 13.2572L2.68259 14.036C2.66056 14.0433 2.63693 14.0444 2.61433 14.039C2.59174 14.0337 2.57107 14.0222 2.55466 14.0058C2.53824 13.9893 2.52672 13.9687 2.52139 13.9461C2.51605 13.9235 2.51712 13.8999 2.52446 13.8778L3.30321 11.5435C3.32006 11.493 3.32599 11.4396 3.3206 11.3867C3.31521 11.3337 3.29864 11.2826 3.27196 11.2366C2.6515 10.1648 2.4021 8.91814 2.56246 7.69011C2.72282 6.46209 3.28397 5.32131 4.15886 4.44476C5.03374 3.56821 6.17346 3.00489 7.40118 2.8422C8.6289 2.67951 9.87599 2.92655 10.949 3.54498C12.022 4.16341 12.8609 5.11866 13.3355 6.26254C13.8102 7.40642 13.8941 8.67497 13.5742 9.8714C13.2543 11.0678 12.5485 12.1252 11.5663 12.8796C10.5841 13.6339 9.38042 14.043 8.14196 14.0435Z" fill="#F6973F"/>
</svg>
