<svg width="17" height="17" viewBox="0 0 17 17" fill="none" xmlns="http://www.w3.org/2000/svg">
<path d="M11.8098 9.58283L9.80983 8.58283C9.75076 8.55345 9.68498 8.54018 9.61914 8.54435C9.5533 8.54852 9.48972 8.56999 9.43483 8.60658L8.45483 9.25971C7.9587 9.00573 7.55506 8.60209 7.30108 8.10596L7.95483 7.12658C7.99143 7.07169 8.01289 7.00811 8.01706 6.94227C8.02123 6.87643 8.00796 6.81065 7.97858 6.75158L6.97858 4.75158C6.94749 4.68901 6.89953 4.63637 6.84012 4.59959C6.78071 4.56282 6.7122 4.54338 6.64233 4.54346C6.01244 4.54346 5.40835 4.79368 4.96295 5.23908C4.51755 5.68448 4.26733 6.28857 4.26733 6.91846C4.26898 8.34349 4.83581 9.70968 5.84346 10.7173C6.85111 11.725 8.2173 12.2918 9.64233 12.2935C10.2722 12.2935 10.8763 12.0432 11.3217 11.5978C11.7671 11.1524 12.0173 10.5483 12.0173 9.91846C12.0174 9.84876 11.9979 9.78043 11.9613 9.72115C11.9246 9.66186 11.8722 9.61397 11.8098 9.58283ZM9.64233 11.5435C8.41616 11.542 7.24064 11.0542 6.3736 10.1872C5.50657 9.32015 5.01882 8.14463 5.01733 6.91846C5.01737 6.52627 5.15924 6.14732 5.41677 5.85154C5.67431 5.55575 6.03013 5.36308 6.41858 5.30908L7.20983 6.89158L6.56045 7.86533C6.52633 7.91669 6.5054 7.97567 6.49952 8.03704C6.49363 8.09842 6.50297 8.1603 6.5267 8.21721C6.87153 9.03706 7.52373 9.68925 8.34358 10.0341C8.40049 10.0578 8.46237 10.0672 8.52374 10.0613C8.58512 10.0554 8.6441 10.0345 8.69546 10.0003L9.6692 9.35096L11.2517 10.1422C11.1977 10.5307 11.005 10.8865 10.7093 11.144C10.4135 11.4015 10.0345 11.5434 9.64233 11.5435ZM8.14233 2.04346C7.0372 2.04323 5.95099 2.33029 4.99026 2.87648C4.02954 3.42267 3.2273 4.20923 2.66226 5.15899C2.09722 6.10876 1.78878 7.18909 1.76721 8.29401C1.74563 9.39894 2.01167 10.4905 2.5392 11.4616L1.81295 13.641C1.76154 13.7951 1.75408 13.9606 1.79141 14.1187C1.82873 14.2769 1.90938 14.4216 2.0243 14.5365C2.13921 14.6514 2.28387 14.7321 2.44204 14.7694C2.60021 14.8067 2.76566 14.7992 2.91983 14.7478L5.0992 14.0216C5.95232 14.4845 6.89989 14.7466 7.86965 14.7877C8.83942 14.8289 9.80577 14.648 10.695 14.259C11.5843 13.8699 12.373 13.283 13.0009 12.5428C13.6289 11.8027 14.0796 10.929 14.3186 9.9882C14.5576 9.04745 14.5786 8.06454 14.3801 7.11443C14.1815 6.16431 13.7686 5.27208 13.1729 4.50577C12.5772 3.73945 11.8143 3.11929 10.9425 2.69257C10.0707 2.26585 9.11297 2.04383 8.14233 2.04346ZM8.14233 14.0435C7.15354 14.0437 6.18215 13.7833 5.32608 13.2885C5.26901 13.2557 5.20441 13.2382 5.13858 13.2378C5.09823 13.2381 5.05816 13.2446 5.01983 13.2572L2.68295 14.036C2.66093 14.0433 2.6373 14.0444 2.6147 14.039C2.5921 14.0337 2.57144 14.0222 2.55502 14.0058C2.5386 13.9893 2.52708 13.9687 2.52175 13.9461C2.51642 13.9235 2.51748 13.8999 2.52483 13.8778L3.30358 11.5435C3.32043 11.493 3.32636 11.4396 3.32097 11.3867C3.31558 11.3337 3.299 11.2826 3.27233 11.2366C2.65186 10.1648 2.40247 8.91814 2.56282 7.69011C2.72318 6.46209 3.28434 5.32131 4.15922 4.44476C5.03411 3.56821 6.17382 3.00489 7.40154 2.8422C8.62927 2.67951 9.87636 2.92655 10.9494 3.54498C12.0223 4.16341 12.8612 5.11866 13.3359 6.26254C13.8106 7.40642 13.8945 8.67497 13.5746 9.8714C13.2547 11.0678 12.5489 12.1252 11.5667 12.8796C10.5845 13.6339 9.38078 14.043 8.14233 14.0435Z" fill="#FBFBFC"/>
</svg>
