<svg width="17" height="16" viewBox="0 0 17 16" fill="none" xmlns="http://www.w3.org/2000/svg">
<path d="M11.8098 9.16438L9.80983 8.16438C9.75076 8.135 9.68498 8.12172 9.61914 8.12589C9.5533 8.13006 9.48972 8.15153 9.43483 8.18812L8.45483 8.84125C7.9587 8.58727 7.55506 8.18363 7.30108 7.6875L7.95483 6.70813C7.99143 6.65323 8.01289 6.58966 8.01706 6.52381C8.02123 6.45797 8.00796 6.3922 7.97858 6.33313L6.97858 4.33313C6.94749 4.27055 6.89953 4.21791 6.84012 4.18114C6.78071 4.14436 6.7122 4.12492 6.64233 4.125C6.01244 4.125 5.40835 4.37522 4.96295 4.82062C4.51755 5.26602 4.26733 5.87011 4.26733 6.5C4.26898 7.92503 4.83581 9.29122 5.84346 10.2989C6.85111 11.3065 8.2173 11.8733 9.64233 11.875C10.2722 11.875 10.8763 11.6248 11.3217 11.1794C11.7671 10.734 12.0173 10.1299 12.0173 9.5C12.0174 9.4303 11.9979 9.36197 11.9613 9.30269C11.9246 9.2434 11.8722 9.19551 11.8098 9.16438ZM9.64233 11.125C8.41616 11.1235 7.24064 10.6358 6.3736 9.76872C5.50657 8.90169 5.01882 7.72617 5.01733 6.5C5.01737 6.10781 5.15924 5.72887 5.41677 5.43308C5.67431 5.13729 6.03013 4.94463 6.41858 4.89063L7.20983 6.47312L6.56045 7.44688C6.52633 7.49823 6.5054 7.55721 6.49952 7.61859C6.49363 7.67996 6.50297 7.74184 6.5267 7.79875C6.87153 8.6186 7.52373 9.2708 8.34358 9.61563C8.40049 9.63936 8.46237 9.6487 8.52374 9.64281C8.58512 9.63692 8.6441 9.61599 8.69546 9.58187L9.6692 8.9325L11.2517 9.72375C11.1977 10.1122 11.005 10.468 10.7093 10.7256C10.4135 10.9831 10.0345 11.125 9.64233 11.125ZM8.14233 1.625C7.0372 1.62477 5.95098 1.91183 4.99026 2.45802C4.02954 3.00421 3.2273 3.79078 2.66226 4.74054C2.09722 5.6903 1.78878 6.77063 1.76721 7.87556C1.74563 8.98048 2.01167 10.072 2.5392 11.0431L1.81295 13.2225C1.76154 13.3767 1.75408 13.5421 1.79141 13.7003C1.82873 13.8585 1.90938 14.0031 2.0243 14.118C2.13921 14.233 2.28387 14.3136 2.44204 14.3509C2.60021 14.3883 2.76566 14.3808 2.91983 14.3294L5.0992 13.6031C5.95232 14.0661 6.89989 14.3281 7.86965 14.3693C8.83942 14.4104 9.80577 14.2296 10.695 13.8405C11.5843 13.4515 12.373 12.8645 13.0009 12.1244C13.6289 11.3843 14.0796 10.5105 14.3186 9.56975C14.5576 8.62899 14.5786 7.64609 14.3801 6.69597C14.1815 5.74586 13.7686 4.85363 13.1729 4.08731C12.5772 3.321 11.8143 2.70083 10.9425 2.27411C10.0707 1.84739 9.11297 1.62538 8.14233 1.625ZM8.14233 13.625C7.15354 13.6252 6.18215 13.3648 5.32608 12.87C5.26901 12.8372 5.20441 12.8198 5.13858 12.8194C5.09823 12.8196 5.05816 12.8261 5.01983 12.8387L2.68295 13.6175C2.66093 13.6248 2.6373 13.6259 2.6147 13.6206C2.5921 13.6152 2.57144 13.6037 2.55502 13.5873C2.5386 13.5709 2.52708 13.5502 2.52175 13.5276C2.51642 13.505 2.51748 13.4814 2.52483 13.4594L3.30358 11.125C3.32043 11.0746 3.32636 11.0211 3.32097 10.9682C3.31558 10.9153 3.299 10.8641 3.27233 10.8181C2.65186 9.74631 2.40247 8.49969 2.56282 7.27166C2.72318 6.04363 3.28434 4.90285 4.15922 4.0263C5.03411 3.14975 6.17382 2.58644 7.40154 2.42375C8.62927 2.26106 9.87636 2.50809 10.9494 3.12652C12.0223 3.74495 12.8612 4.7002 13.3359 5.84408C13.8106 6.98796 13.8945 8.25652 13.5746 9.45294C13.2547 10.6494 12.5489 11.7068 11.5667 12.4611C10.5845 13.2155 9.38078 13.6246 8.14233 13.625Z" fill="#6C8082"/>
</svg>
